<mxfile host="app.diagrams.net" modified="2024-02-25T13:24:45.891Z" agent="Mozilla/5.0 (Windows NT 10.0; Win64; x64; rv:123.0) Gecko/20100101 Firefox/123.0" version="23.1.6" etag="z0fy04zgxsAEQsDI_OXv" type="github">
  <diagram name="Seite-1" id="xjO0k-bdXmIlmXKvqaBf">
    <mxGraphModel>
      <root>
        <mxCell id="0" />
        <mxCell id="1" parent="0" />
      </root>
    </mxGraphModel>
  </diagram>
</mxfile>
